<svg xmlns="http://www.w3.org/2000/svg" viewBox="0 0 14.5159 14.44293"><defs><style>.ed400a77-c1b1-427d-bf81-4a70f1f685ca{fill:#1b75bc;}</style></defs><g id="eede7953-43cb-4599-8984-58525e4b5bcd" data-name="Camada 2"><g id="b575d5aa-b54c-4c89-8daa-d5f7dccad45a" data-name="Layer 1"><path class="ed400a77-c1b1-427d-bf81-4a70f1f685ca" d="M13.39759,9.06375a.3615.3615,0,0,0-.36152.36153v3.2099a1.08567,1.08567,0,0,1-1.08456,1.08457H1.8076A1.08567,1.08567,0,0,1,.723,12.63518V3.21432A1.08584,1.08584,0,0,1,1.8076,2.12976H5.01751a.36152.36152,0,0,0,0-.723H1.8076A1.80964,1.80964,0,0,0,0,3.21432v9.421a1.80964,1.80964,0,0,0,1.8076,1.80761H11.95151a1.80964,1.80964,0,0,0,1.8076-1.80761v-3.21A.3615.3615,0,0,0,13.39759,9.06375Z"/><path class="ed400a77-c1b1-427d-bf81-4a70f1f685ca" d="M13.61591.47651a1.62684,1.62684,0,0,0-2.30074,0L4.86542,6.92626a.3614.3614,0,0,0-.09278.15916l-.84816,3.06205a.36144.36144,0,0,0,.44484.445l3.06205-.8483a.36146.36146,0,0,0,.15915-.09278l6.44962-6.4499a1.62865,1.62865,0,0,0,0-2.30074ZM5.65314,7.16125l5.27862-5.27877,1.7024,1.7024L7.35539,8.86365Zm-.34006.68237L6.67316,9.20384l-1.88132.52124Zm8.21584-5.15336-.38341.38341L11.443,1.37113l.38355-.38341a.90372.90372,0,0,1,1.278,0l.42436.42422A.9051.9051,0,0,1,13.52892,2.69026Z"/></g></g></svg>