<svg xmlns="http://www.w3.org/2000/svg" viewBox="0 0 14.09113 14.09113"><defs><style>.b1b2a523-d39b-4850-bc6b-33b140778123{fill:#39b54a;}</style></defs><g id="bbef6923-b49f-4826-9118-e2b233a24d3f" data-name="Camada 2"><g id="aae4f97e-927e-4450-a4bb-a0961a239f19" data-name="Layer 1"><path class="b1b2a523-d39b-4850-bc6b-33b140778123" d="M12.43734,0H1.65379A1.65563,1.65563,0,0,0,0,1.65379V12.43734a1.65546,1.65546,0,0,0,1.65379,1.65379H12.43734a1.65546,1.65546,0,0,0,1.65379-1.65379V1.65379A1.65563,1.65563,0,0,0,12.43734,0Zm1.10253,12.43734a1.10365,1.10365,0,0,1-1.10253,1.10253H1.65379A1.10365,1.10365,0,0,1,.55126,12.43734V1.65379A1.10365,1.10365,0,0,1,1.65379.55126H12.43734a1.10365,1.10365,0,0,1,1.10253,1.10253ZM11.345,3.63614,6.90072,10.74689a.27646.27646,0,0,1-.23374.12982.27428.27428,0,0,1-.15931-.05072L2.82082,8.21328a.27562.27562,0,1,1,.31863-.44983l3.4487,2.444,4.28939-6.863a.27549.27549,0,0,1,.46747.29162Z"/></g></g></svg>