<svg xmlns="http://www.w3.org/2000/svg" viewBox="0 0 14.09113 15.84356"><defs><style>.b52fa663-2290-4f9f-8bdf-388340a48ca3{fill:#c17481;}</style></defs><g id="a689c4e6-c46f-4339-9df1-a2a2982ee2ed" data-name="Camada 2"><g id="e5b9849f-ff15-4ce8-b101-aabe1dc2ca1c" data-name="Layer 1"><path class="b52fa663-2290-4f9f-8bdf-388340a48ca3" d="M13.65139,2.28012H10.355V1.74266A1.74463,1.74463,0,0,0,8.61233,0H5.4788A1.74463,1.74463,0,0,0,3.73614,1.74266v.53746H.43974a.43974.43974,0,1,0,0,.87947h.79478V13.49178A2.35491,2.35491,0,0,0,3.5863,15.84356h6.91853a2.35491,2.35491,0,0,0,2.35178-2.35178V3.15959h.79478a.43974.43974,0,1,0,0-.87947ZM4.61561,1.74266A.86468.86468,0,0,1,5.4788.87947H8.61233a.86468.86468,0,0,1,.86319.86319v.53746H4.61561Zm7.36152,11.74912a1.475,1.475,0,0,1-1.4723,1.47231H3.5863A1.475,1.475,0,0,1,2.114,13.49178V3.15959h9.86639V13.49178Z"/><path class="b52fa663-2290-4f9f-8bdf-388340a48ca3" d="M7.04556,13.38755a.43791.43791,0,0,0,.43974-.43974V5.17587a.43974.43974,0,1,0-.87947,0v7.76869A.44069.44069,0,0,0,7.04556,13.38755Z"/><path class="b52fa663-2290-4f9f-8bdf-388340a48ca3" d="M4.17587,12.90221a.43791.43791,0,0,0,.43974-.43974V5.65795a.43974.43974,0,1,0-.87947,0v6.80452A.44.44,0,0,0,4.17587,12.90221Z"/><path class="b52fa663-2290-4f9f-8bdf-388340a48ca3" d="M9.91526,12.90221a.43791.43791,0,0,0,.43973-.43974V5.65795a.43974.43974,0,1,0-.87947,0v6.80452A.43791.43791,0,0,0,9.91526,12.90221Z"/></g></g></svg>