<svg xmlns="http://www.w3.org/2000/svg" viewBox="0 0 20.16361 17.95807"><defs><style>.b3f8a36e-71bb-49c3-9488-25e38cc3bf9a{fill:#fff;}</style></defs><g id="a90a151d-4e12-4a11-891d-2bd3ecb9bcfb" data-name="Camada 2"><g id="a84c506a-86de-44ce-b6b3-e7fee96826ed" data-name="Layer 1"><path class="b3f8a36e-71bb-49c3-9488-25e38cc3bf9a" d="M16.78881,5.51129A6.90932,6.90932,0,0,0,8.38506.22088,7.19334,7.19334,0,0,0,3.16368,6.756,3.95473,3.95473,0,0,0,.05093,11.32176a3.83826,3.83826,0,0,0,3.74238,3.326h6.9259V13.32363H3.79331A2.58584,2.58584,0,0,1,1.2748,10.67538,2.58584,2.58584,0,0,1,3.79331,8.02713a.64644.64644,0,0,0,.62963-.66206,5.81878,5.81878,0,0,1,5.661-5.96452,5.74675,5.74675,0,0,1,5.56527,4.80591.644.644,0,0,0,.53519.52965,3.26013,3.26013,0,0,1,2.72,3.27721h1.25926A4.59443,4.59443,0,0,0,16.78881,5.51129Z"/><path class="b3f8a36e-71bb-49c3-9488-25e38cc3bf9a" d="M14.67956,9.54325,12.16105,12.1915l.88777.93351L14.497,11.60889v6.34918h1.25925V11.60889L17.19806,13.125l.88778-.93351L15.56733,9.54325A.608.608,0,0,0,14.67956,9.54325Z"/></g></g></svg>