<svg xmlns="http://www.w3.org/2000/svg" viewBox="0 0 15.29411 15.97439"><defs><style>.a8493dd5-f29a-4253-ad4f-bbca77fb58c4{fill:#fff;}</style></defs><g id="b072fe39-db44-4db2-9f98-0a59e571371c" data-name="Camada 2"><g id="e79aa465-4a73-4396-96b9-2deb9e9480ea" data-name="Layer 1"><path class="a8493dd5-f29a-4253-ad4f-bbca77fb58c4" d="M7.514.9984h4.70866a2.07306,2.07306,0,0,1,2.07306,2.07305v9.83148A2.07306,2.07306,0,0,1,12.22265,14.976H7.44a.4992.4992,0,1,0,0,.9984h4.85585a2.99822,2.99822,0,0,0,2.99823-2.99822V2.99822A2.99822,2.99822,0,0,0,12.29588,0H7.514a.4992.4992,0,0,0,0,.9984Z"/><path class="a8493dd5-f29a-4253-ad4f-bbca77fb58c4" d="M.14653,8.84138l3.17269,3.17269a.49941.49941,0,0,0,.70627-.70627L1.70329,8.98559H11.8315a.4992.4992,0,0,0,0-.9984H1.70329L4.02549,5.665a.50106.50106,0,0,0-.35128-.85418.48709.48709,0,0,0-.35129.14791L.15023,8.13141A.49886.49886,0,0,0,.14653,8.84138Z"/></g></g></svg>