<svg xmlns="http://www.w3.org/2000/svg" viewBox="0 0 17.67308 17.67308"><defs><style>.e9311af9-bfad-4061-bb55-2b59d1b23e55{fill:#fff;}</style></defs><g id="f2bbd5fd-146b-4b83-b36a-500a2bc01ac2" data-name="Camada 2"><g id="b0a0ea72-381a-42ed-8e34-6652ef5e895c" data-name="Layer 1"><path class="e9311af9-bfad-4061-bb55-2b59d1b23e55" d="M2.32133,14.80506l.00042.00049a8.8365,8.8365,0,0,0,15.35133-5.969.52366.52366,0,1,0-1.04731,0A7.76614,7.76614,0,0,1,15.20129,13.327l-.0037-.0095c-.008-.02178-.01689-.04315-.0252-.06479-.02193-.05726-.04413-.1143-.06766-.17064-.01222-.02919-.02513-.05782-.0377-.08672-.021-.04832-.04231-.09642-.06452-.144-.01438-.03072-.02918-.0611-.044-.09154q-.033-.06775-.06759-.13468-.02367-.04555-.048-.09077-.03582-.0663-.07331-.13147c-.01662-.029-.03316-.05809-.05027-.08679-.02674-.045-.05439-.0893-.08225-.1335-.01641-.026-.03247-.05222-.04922-.078-.03317-.05089-.06752-.101-.10215-.15074-.0125-.018-.02451-.03637-.03721-.05425q-.07164-.10065-.14712-.19808c-.01187-.01536-.02436-.03009-.03637-.04531-.039-.04937-.07841-.09845-.11884-.14649-.01934-.023-.03931-.04531-.05893-.06793-.03428-.03952-.06877-.0789-.104-.11751-.02213-.0243-.04468-.048-.06724-.07192q-.0511-.05424-.10347-.10731-.0355-.03582-.07157-.07094-.0531-.05184-.10745-.10222c-.02423-.02255-.04839-.045-.073-.06717-.03806-.03428-.07681-.06779-.11577-.1011-.02346-.0201-.04678-.04049-.07059-.06025-.04482-.03715-.09048-.07324-.13629-.10913-.01871-.01459-.037-.02975-.05585-.04413q-.09761-.07456-.19808-.14523l-.03792-.02562c-.05488-.03791-.11024-.07527-.16638-.11136-.02444-.01571-.04929-.03066-.07394-.046-.04524-.0282-.09056-.05613-.1365-.08315-.02793-.01641-.0562-.03226-.08441-.04825q-.06556-.03717-.132-.07282-.04442-.02378-.0893-.04664-.06641-.034-.13357-.0664c-.03009-.01452-.06012-.029-.09049-.043-.0465-.0215-.09356-.0421-.14069-.06249-.029-.01257-.05788-.02534-.08713-.03742-.05272-.02186-.10606-.04245-.15947-.06277-.02416-.00922-.048-.019-.07234-.02786q-.117-.04273-.23578-.08106l-.02618-.00782q-.10609-.03352-.21373-.06326l-.05166-.01362a3.3456,3.3456,0,1,0-4.43173.00007A6.07919,6.07919,0,0,0,3.487,11.5623a.52364.52364,0,1,0,.80845.66574,5.03148,5.03148,0,0,1,3.89648-1.84075H9.481q.1128,0,.22441.005c.02485.00112.0495.00335.07429.00482.04936.00293.09886.00558.14788.00991.02932.00258.05837.00635.08755.00943.04413.00467.08839.009.13217.0148.031.00405.06165.00928.09251.014.04155.00629.08323.01229.12449.01955.03163.00559.06291.01229.09433.01844.04.00782.08016.01543.11981.02422.03177.00706.06326.01509.09482.0227.03882.00942.07764.01864.11611.0289.03177.00845.06319.01787.09468.027.03777.01082.07554.02165.1129.03338.03149.00991.06263.02059.09384.03107.03679.01236.07366.02464.11011.03784.03114.01124.06186.02318.09272.03505.036.01375.07184.02765.10745.04224.03058.01257.06089.02577.09126.039.03505.01522.07.03058.10473.04657.03009.0139.0599.02835.08972.0428.03421.01662.06835.03338.10215.05076.02939.01515.05858.03072.08769.04643.03344.018.06675.03624.0997.055.0287.01627.05719.033.08553.04985q.04891.02912.09713.05921.04188.0263.08322.05328.04755.03109.09447.06325.04063.02787.08071.05649c.03093.02206.06151.04461.092.06738.02611.01962.05215.03937.07792.05948.03.02346.05969.04741.08923.0715.02527.0206.05041.04133.07519.06242.02912.02478.05788.05006.08644.07554.02416.02151.04832.04308.07213.06508.02827.02611.056.05285.08364.07959.02311.02242.04629.04476.06905.06766.02723.02744.0539.05551.08058.08358.02206.02332.04426.04643.06591.07017.02632.02883.05194.05823.07757.08762.02094.024.042.04783.06249.07227.02534.03016.04992.06109.07457.09188.01968.02458.03965.049.05885.074.02444.03177.048.06423.07178.09663.01829.025.03687.04964.05467.075.02367.03365.04636.068.06926.10222.01676.02506.03386.04978.0502.07519.0229.03575.04483.0722.06689.10857.015.02479.03058.04923.04518.07429.02269.03889.04419.07862.06591.11821.01284.02332.02618.04629.03861.06982.02353.04454.04573.08993.06793.13531.0095.01941.01962.0384.02891.05795q.0929.19607.16945.40168c.007.01878.01306.038.01983.05684.01788.04985.03568.0997.052.15032.00838.026.01564.0525.02367.07869.01347.04412.02716.08818.03945.13287.008.02932.015.05906.02255.0886.00949.03707.01913.07408.02779.1115A7.78864,7.78864,0,1,1,14.22827,3.215a.52364.52364,0,1,0,.725-.75574,8.83615,8.83615,0,0,0-12.632,12.34584Zm8.81346-7.76329A2.29829,2.29829,0,1,1,8.83651,4.74348,2.30084,2.30084,0,0,1,11.13479,7.04177Z"/></g></g></svg>